<?xml version="1.0" standalone="no"?>
<!DOCTYPE svg PUBLIC "-//W3C//DTD SVG 20010904//EN"
 "http://www.w3.org/TR/2001/REC-SVG-20010904/DTD/svg10.dtd">
<svg version="1.0" xmlns="http://www.w3.org/2000/svg"
 width="890.000000pt" height="240.000000pt" viewBox="0 0 890.000000 240.000000"
 preserveAspectRatio="xMidYMid meet">

<g transform="translate(0.000000,240.000000) scale(0.100000,-0.100000)"
fill="#000000" stroke="none">
<path d="M1405 2380 c-137 -19 -271 -87 -374 -191 -112 -112 -173 -238 -191
-397 -5 -48 -10 -203 -10 -344 0 -142 -3 -258 -6 -258 -23 0 -151 80 -209 131
-90 79 -141 103 -210 97 -99 -8 -160 -82 -153 -187 l3 -56 -66 0 c-54 0 -72
-5 -106 -27 -53 -35 -78 -87 -78 -163 1 -155 117 -311 302 -407 l63 -33 -6
-50 c-9 -75 9 -126 60 -173 62 -58 119 -72 283 -72 l133 0 -6 -37 c-9 -60 37
-139 106 -181 54 -33 57 -33 145 -29 138 6 258 61 388 179 l64 56 27 -35 c40
-49 138 -120 226 -161 66 -32 85 -36 155 -36 69 -1 86 3 125 26 72 42 119 125
106 189 l-5 29 127 0 c153 0 216 15 272 66 51 47 75 108 67 177 l-6 52 82 45
c196 108 312 294 277 447 -21 95 -106 153 -206 139 l-40 -5 4 58 c8 106 -53
181 -153 189 -65 5 -121 -18 -190 -80 -69 -61 -203 -148 -228 -148 -3 0 -7
141 -10 313 -5 326 -9 360 -56 475 -70 174 -228 318 -411 376 -86 27 -208 38
-295 26z m259 -150 c165 -57 295 -188 348 -349 19 -61 21 -95 27 -466 7 -393
7 -401 30 -449 29 -58 88 -100 168 -116 106 -22 212 7 358 100 118 75 170 99
212 100 70 0 83 -67 32 -168 -37 -75 -99 -132 -213 -195 -79 -44 -85 -46 -112
-33 -16 8 -67 17 -114 21 -47 3 -122 15 -168 26 -46 10 -91 19 -100 19 -39 0
-67 -61 -44 -97 19 -29 193 -73 292 -73 91 0 136 -33 128 -96 -8 -67 -100 -90
-327 -79 l-136 7 -97 100 c-75 78 -102 100 -123 100 -30 0 -50 -16 -59 -48
-10 -31 65 -126 184 -231 108 -97 118 -117 73 -153 -40 -32 -120 -24 -209 20
-117 57 -244 203 -244 281 0 33 -34 69 -65 69 -34 0 -68 -47 -61 -82 20 -97
25 -84 -51 -157 -81 -78 -210 -148 -288 -157 -62 -8 -120 14 -137 51 -11 24
-6 31 119 153 167 163 190 207 129 247 -35 23 -55 10 -155 -96 l-90 -96 -163
-6 c-180 -7 -246 0 -286 30 -50 37 -37 114 22 132 17 5 67 12 111 15 96 6 219
37 246 62 23 21 25 61 2 86 -20 23 -32 23 -135 -1 -46 -11 -123 -23 -173 -26
-49 -4 -100 -13 -112 -21 -21 -13 -28 -12 -75 12 -130 66 -209 135 -249 219
-48 100 -34 165 34 165 42 -1 94 -25 212 -100 129 -82 188 -103 292 -103 69 0
91 5 138 28 87 42 107 80 116 219 4 61 8 235 8 386 1 200 5 294 16 345 45 218
219 385 445 429 51 10 186 -3 244 -24z m-1179 -966 c116 -93 167 -128 245
-169 102 -52 112 -72 58 -105 -43 -26 -107 -26 -191 0 -106 33 -203 136 -223
237 -5 24 -1 36 15 52 26 26 50 21 96 -15z m2120 22 c45 -33 0 -153 -88 -232
-84 -75 -234 -107 -304 -64 -53 32 -44 54 40 96 86 44 177 104 233 156 34 32
73 55 95 57 3 1 14 -5 24 -13z"/>
<path d="M1650 2055 c-20 -24 -17 -75 6 -92 30 -22 76 -12 94 20 13 24 13 30
0 55 -19 33 -78 43 -100 17z"/>
<path d="M1792 1928 c-16 -16 -15 -33 4 -48 22 -19 54 12 38 37 -14 22 -27 26
-42 11z"/>
<path d="M1185 1380 c-55 -36 -65 -70 -65 -213 0 -98 4 -137 16 -163 47 -98
201 -98 248 0 12 26 16 65 16 161 0 144 -11 182 -65 215 -42 26 -110 26 -150
0z m134 -66 c19 -24 21 -40 21 -151 0 -118 -1 -125 -25 -148 -32 -33 -78 -33
-110 0 -24 23 -25 30 -25 148 0 111 2 127 21 151 16 20 29 26 59 26 30 0 43
-6 59 -26z"/>
<path d="M1240 1240 c-23 -23 -24 -33 -10 -61 12 -22 59 -26 78 -7 18 18 15
53 -6 71 -24 22 -38 21 -62 -3z"/>
<path d="M1666 1368 c-45 -40 -56 -78 -56 -203 0 -125 11 -163 56 -202 32 -28
45 -33 88 -33 43 0 58 5 88 30 47 39 58 77 58 205 0 125 -11 165 -56 204 -29
26 -43 31 -88 31 -45 0 -58 -5 -90 -32z m143 -47 c27 -27 34 -71 29 -185 -3
-84 -6 -97 -27 -120 -31 -33 -76 -34 -108 -4 -22 20 -23 28 -23 155 0 120 2
135 20 153 26 26 83 27 109 1z"/>
<path d="M1722 1253 c-44 -17 -30 -93 18 -93 49 0 68 50 32 83 -19 17 -28 19
-50 10z"/>
<path d="M2495 2316 c-5 -3 -27 -7 -48 -11 -50 -8 -113 -65 -127 -113 -14 -54
-12 -159 4 -190 21 -40 92 -104 171 -154 39 -25 87 -64 108 -86 32 -37 37 -48
37 -92 0 -63 -23 -90 -78 -90 -53 0 -72 18 -83 75 -11 61 -34 85 -85 92 -31 4
-45 0 -68 -18 -27 -21 -28 -26 -24 -85 5 -81 41 -137 113 -173 42 -22 63 -26
140 -26 79 0 97 4 148 28 91 45 136 135 122 244 -11 86 -52 136 -180 220 -136
90 -155 110 -155 167 0 54 22 76 77 76 48 0 71 -22 80 -74 12 -75 91 -100 145
-45 28 27 30 34 24 76 -16 117 -90 175 -231 180 -44 1 -84 1 -90 -1z"/>
<path d="M2924 2306 c-35 -15 -44 -33 -44 -79 1 -61 45 -87 147 -87 l52 0 3
-321 3 -321 28 -24 c37 -32 87 -32 124 0 l28 24 3 321 3 321 52 0 c103 0 146
26 147 88 0 46 -14 68 -51 81 -48 17 -455 14 -495 -3z"/>
<path d="M3730 2307 c-72 -20 -118 -54 -150 -111 l-30 -51 0 -260 c0 -231 2
-264 19 -300 40 -87 116 -133 235 -142 132 -10 230 34 281 127 l30 55 3 215
c6 322 -13 385 -131 444 -69 34 -182 44 -257 23z m157 -169 c23 -21 23 -24 23
-262 0 -232 -1 -240 -22 -263 -30 -32 -81 -31 -113 2 l-25 24 0 236 0 236 25
24 c31 32 80 33 112 3z"/>
<path d="M4443 2306 c-92 -23 -165 -86 -192 -165 -7 -22 -11 -120 -11 -270 0
-260 5 -284 66 -345 116 -116 375 -91 470 45 27 39 54 122 54 166 0 43 -33 63
-103 63 -82 0 -107 -17 -107 -71 0 -50 -22 -104 -48 -118 -36 -19 -77 -13
-103 15 -24 25 -24 29 -27 237 -2 116 -1 221 3 234 15 62 90 83 140 40 21 -18
28 -35 34 -86 10 -79 23 -91 108 -91 51 0 67 4 84 21 19 19 21 29 15 83 -12
113 -66 192 -160 231 -53 22 -160 27 -223 11z"/>
<path d="M4993 2296 l-28 -24 0 -387 0 -387 28 -24 c45 -38 113 -27 136 23 6
14 11 83 11 163 l0 140 54 0 c30 0 62 -3 71 -6 32 -13 45 -59 45 -164 0 -116
12 -148 67 -174 62 -30 123 -15 144 36 10 25 10 35 -4 62 -9 18 -17 65 -20
112 -4 95 -34 167 -83 199 l-30 21 58 139 c33 77 63 156 67 176 11 47 -7 90
-43 107 -75 34 -109 -1 -185 -192 -33 -82 -64 -153 -69 -158 -5 -5 -22 -8 -38
-6 l-29 3 -5 155 c-3 85 -9 162 -13 171 -10 20 -50 39 -82 39 -13 0 -37 -11
-52 -24z"/>
<path d="M5634 2306 c-35 -15 -44 -33 -44 -79 1 -61 45 -87 147 -87 l52 0 3
-321 3 -321 28 -24 c37 -32 87 -32 124 0 l28 24 3 321 3 321 52 0 c103 0 146
26 147 88 0 46 -14 68 -51 81 -48 17 -455 14 -495 -3z"/>
<path d="M6440 2307 c-72 -20 -118 -54 -150 -111 l-30 -51 0 -260 c0 -231 2
-264 19 -300 40 -87 116 -133 235 -142 132 -10 230 34 281 127 l30 55 3 215
c6 322 -13 385 -131 444 -69 34 -182 44 -257 23z m157 -169 c23 -21 23 -24 23
-262 0 -232 -1 -240 -22 -263 -30 -32 -81 -31 -113 2 l-25 24 0 236 0 236 25
24 c31 32 80 33 112 3z"/>
<path d="M7024 2308 c-12 -5 -27 -21 -33 -34 -15 -34 -15 -744 0 -777 21 -46
98 -62 138 -29 30 24 40 77 41 208 l0 111 88 6 c106 7 169 28 214 71 47 45 70
97 76 171 10 136 -55 230 -187 269 -63 18 -302 22 -337 4z m286 -153 c37 -19
50 -43 50 -94 0 -83 -42 -121 -134 -121 l-56 0 0 115 0 115 55 0 c31 0 69 -7
85 -15z"/>
<path d="M7704 2308 c-46 -22 -49 -41 -49 -372 0 -300 1 -312 22 -352 28 -52
90 -108 139 -125 22 -8 77 -14 129 -14 136 1 211 43 259 145 20 43 21 61 21
352 0 296 -1 308 -21 335 -26 35 -61 48 -108 39 -69 -13 -70 -21 -76 -366 -3
-168 -9 -313 -14 -323 -19 -40 -79 -49 -117 -18 l-24 19 -5 314 c-5 335 -7
344 -57 367 -29 13 -71 13 -99 -1z"/>
<path d="M8527 2306 c-94 -26 -136 -79 -144 -180 -10 -119 22 -168 183 -277
124 -85 149 -115 149 -182 0 -60 -27 -87 -85 -87 -45 0 -80 35 -80 81 0 15
-11 41 -24 56 -20 23 -32 28 -71 28 -76 0 -101 -51 -74 -148 13 -48 60 -102
113 -130 63 -33 201 -31 277 4 85 40 129 111 129 207 0 109 -52 182 -188 265
-123 75 -152 104 -152 156 0 54 26 81 80 81 49 0 80 -27 80 -70 0 -34 28 -67
65 -76 31 -8 82 12 95 37 23 42 3 137 -38 182 -51 57 -208 84 -315 53z"/>
</g>
</svg>
